<svg viewBox="0 0 290 98" fill="none" xmlns="http://www.w3.org/2000/svg">
<path d="M0.68 96V6.39999H30.312C36.4987 6.39999 42.3013 7.57333 47.72 9.92C53.1387 12.224 57.896 15.4453 61.992 19.584C66.088 23.68 69.288 28.4373 71.592 33.856C73.9387 39.232 75.112 45.0133 75.112 51.2C75.112 57.3867 73.9387 63.1893 71.592 68.608C69.288 73.984 66.088 78.7413 61.992 82.88C57.896 86.976 53.1387 90.1973 47.72 92.544C42.3013 94.848 36.4987 96 30.312 96H0.68ZM9.64 87.04H30.312C35.2613 87.04 39.8907 86.1227 44.2 84.288C48.552 82.4107 52.3707 79.8293 55.656 76.544C58.9413 73.2587 61.5013 69.4613 63.336 65.152C65.2133 60.8 66.152 56.1493 66.152 51.2C66.152 46.2507 65.2133 41.6213 63.336 37.312C61.5013 32.96 58.92 29.1413 55.592 25.856C52.3067 22.5707 48.5093 20.0107 44.2 18.176C39.8907 16.2987 35.2613 15.36 30.312 15.36H9.64V87.04ZM119.384 40.96H104.088L104.024 96H95.064L95.128 40.96H83.544V32H95.128L95.064 11.904H104.024L104.088 32H119.384V40.96ZM181.663 32H190.623V96H181.663L181.343 84.096C179.252 88.1493 176.33 91.4347 172.575 93.952C168.82 96.4267 164.34 97.664 159.135 97.664C154.442 97.664 150.047 96.7893 145.951 95.04C141.855 93.248 138.25 90.7947 135.135 87.68C132.02 84.5653 129.588 80.96 127.839 76.864C126.09 72.768 125.215 68.3733 125.215 63.68C125.215 59.072 126.068 54.7413 127.775 50.688C129.524 46.6347 131.914 43.072 134.943 40C138.015 36.928 141.556 34.5387 145.567 32.832C149.62 31.0827 153.951 30.208 158.559 30.208C163.892 30.208 168.543 31.488 172.511 34.048C176.479 36.5653 179.636 39.872 181.983 43.968L181.663 32ZM158.943 88.96C163.508 88.96 167.434 87.8507 170.719 85.632C174.004 83.3707 176.522 80.3413 178.271 76.544C180.063 72.7467 180.959 68.5653 180.959 64C180.959 59.3067 180.063 55.0827 178.271 51.328C176.479 47.5307 173.94 44.5227 170.655 42.304C167.37 40.0853 163.466 38.976 158.943 38.976C154.42 38.976 150.282 40.1067 146.527 42.368C142.815 44.5867 139.85 47.5947 137.631 51.392C135.455 55.1893 134.367 59.392 134.367 64C134.367 68.6507 135.498 72.8747 137.759 76.672C140.02 80.4267 143.007 83.4133 146.719 85.632C150.474 87.8507 154.548 88.96 158.943 88.96ZM203.43 32H212.39V96H203.43V32ZM207.974 20.8C206.523 20.8 205.286 20.3307 204.262 19.392C203.281 18.4107 202.79 17.1947 202.79 15.744C202.79 14.2933 203.281 13.0987 204.262 12.16C205.286 11.1787 206.523 10.688 207.974 10.688C209.382 10.688 210.577 11.1787 211.558 12.16C212.582 13.0987 213.094 14.2933 213.094 15.744C213.094 17.1947 212.603 18.4107 211.622 19.392C210.641 20.3307 209.425 20.8 207.974 20.8ZM228.305 96V-7.62939e-06H237.265V96H228.305ZM252.68 96V32H261.64V40.832C263.901 37.5893 266.845 35.008 270.472 33.088C274.099 31.168 278.045 30.208 282.312 30.208C284.787 30.208 287.176 30.528 289.48 31.168L285.832 40.064C284.04 39.5093 282.291 39.232 280.584 39.232C277.128 39.232 273.949 40.0853 271.048 41.792C268.189 43.4987 265.907 45.7813 264.2 48.64C262.493 51.4987 261.64 54.6773 261.64 58.176V96H252.68Z" fill="white"/>
<g clip-path="url(#clip0_0_1)">
<path d="M208 32.2963C207.997 27.9733 209.713 23.8281 212.77 20.7704C215.828 17.7126 219.973 16 224.296 16C219.973 16 215.828 14.2874 212.77 11.2296C209.713 8.17185 207.997 4.02667 208 -0.296295C208.003 4.02667 206.287 8.17185 203.23 11.2296C200.172 14.2874 196.027 16.003 191.704 16C194.978 15.9911 198.181 16.9719 200.889 18.8148C205.345 21.8548 208.006 26.9037 208 32.2963Z" fill="white"/>
</g>
<defs>
<clipPath id="clip0_0_1">
<rect fill="white" transform="translate(192)"/>
</clipPath>
</defs>
</svg>
