<?xml version="1.0" encoding="utf-8"?>
<svg viewBox="0 0 500 500" xmlns="http://www.w3.org/2000/svg">
  <path d="M 145.847 272.158 L 145.847 204.958 L 168.071 204.958 C 172.711 204.958 177.063 205.838 181.127 207.598 C 185.191 209.326 188.759 211.742 191.831 214.846 C 194.903 217.918 197.303 221.486 199.031 225.55 C 200.791 229.582 201.671 233.918 201.671 238.558 C 201.671 243.198 200.791 247.55 199.031 251.614 C 197.303 255.646 194.903 259.214 191.831 262.318 C 188.759 265.39 185.191 267.806 181.127 269.566 C 177.063 271.294 172.711 272.158 168.071 272.158 L 145.847 272.158 Z M 152.567 265.438 L 168.071 265.438 C 171.783 265.438 175.255 264.75 178.487 263.374 C 181.751 261.966 184.615 260.03 187.079 257.566 C 189.543 255.102 191.463 252.254 192.839 249.022 C 194.247 245.758 194.951 242.27 194.951 238.558 C 194.951 234.846 194.247 231.374 192.839 228.142 C 191.463 224.878 189.527 222.014 187.031 219.55 C 184.567 217.086 181.719 215.166 178.487 213.79 C 175.255 212.382 171.783 211.678 168.071 211.678 L 152.567 211.678 L 152.567 265.438 Z M 234.875 230.878 L 223.403 230.878 L 223.355 272.158 L 216.635 272.158 L 216.683 230.878 L 207.995 230.878 L 207.995 224.158 L 216.683 224.158 L 216.635 209.086 L 223.355 209.086 L 223.403 224.158 L 234.875 224.158 L 234.875 230.878 Z M 281.584 224.158 L 288.304 224.158 L 288.304 272.158 L 281.584 272.158 L 281.344 263.23 C 279.776 266.27 277.584 268.734 274.768 270.622 C 271.952 272.478 268.592 273.406 264.688 273.406 C 261.168 273.406 257.872 272.75 254.8 271.438 C 251.728 270.094 249.024 268.254 246.688 265.918 C 244.352 263.582 242.528 260.878 241.216 257.806 C 239.904 254.734 239.248 251.438 239.248 247.918 C 239.248 244.462 239.888 241.214 241.168 238.174 C 242.48 235.134 244.272 232.462 246.544 230.158 C 248.848 227.854 251.504 226.062 254.512 224.782 C 257.552 223.47 260.8 222.814 264.256 222.814 C 268.256 222.814 271.744 223.774 274.72 225.694 C 277.696 227.582 280.064 230.062 281.824 233.134 L 281.584 224.158 Z M 264.544 266.878 C 267.968 266.878 270.912 266.046 273.376 264.382 C 275.84 262.686 277.728 260.414 279.04 257.566 C 280.384 254.718 281.056 251.582 281.056 248.158 C 281.056 244.638 280.384 241.47 279.04 238.654 C 277.696 235.806 275.792 233.55 273.328 231.886 C 270.864 230.222 267.936 229.39 264.544 229.39 C 261.152 229.39 258.048 230.238 255.232 231.934 C 252.448 233.598 250.224 235.854 248.56 238.702 C 246.928 241.55 246.112 244.702 246.112 248.158 C 246.112 251.646 246.96 254.814 248.656 257.662 C 250.352 260.478 252.592 262.718 255.376 264.382 C 258.192 266.046 261.248 266.878 264.544 266.878 Z M 297.91 224.158 L 304.63 224.158 L 304.63 272.158 L 297.91 272.158 L 297.91 224.158 Z M 316.566 272.158 L 316.566 200.158 L 323.286 200.158 L 323.286 272.158 L 316.566 272.158 Z M 334.847 272.158 L 334.847 224.158 L 341.567 224.158 L 341.567 230.782 C 343.263 228.35 345.471 226.414 348.191 224.974 C 350.911 223.534 353.871 222.814 357.071 222.814 C 358.927 222.814 360.719 223.054 362.447 223.534 L 359.711 230.206 C 358.367 229.79 357.055 229.582 355.775 229.582 C 353.183 229.582 350.799 230.222 348.623 231.502 C 346.479 232.782 344.767 234.494 343.487 236.638 C 342.207 238.782 341.567 241.166 341.567 243.79 L 341.567 272.158 L 334.847 272.158 Z" fill="black"/>
  <g transform="matrix(1, 0, 0, 1, 540.8768310546875, 177.1326904296875)" id="b2ee4b58-eb25-4ed0-8d5a-c04fc174bba5"/>
  <g transform="matrix(7.47597599029541, 0, 0, 7.47597599029541, 226.53604125976562, 79.38386535644531)" style="">
    <path style="stroke: none; stroke-width: 1; stroke-dasharray: none; stroke-linecap: butt; stroke-dashoffset: 0; stroke-linejoin: miter; stroke-miterlimit: 4; fill-rule: nonzero; opacity: 1;" vector-effect="non-scaling-stroke" d="M 9.998 19.134 C 9.997 18.67 10.181 18.226 10.509 17.899 C 10.836 17.571 11.28 17.387 11.744 17.388 C 11.28 17.388 10.836 17.204 10.509 16.877 C 10.181 16.549 9.997 16.105 9.998 15.642 C 9.998 16.105 9.814 16.549 9.487 16.877 C 9.159 17.204 8.715 17.388 8.252 17.388 C 8.603 17.387 8.946 17.492 9.236 17.689 C 9.713 18.015 9.998 18.556 9.998 19.134 Z" stroke-linecap="round"/>
  </g>
</svg>